<?xml version="1.0" encoding="utf-8"?>
<!-- Generator: Adobe Illustrator 26.3.1, SVG Export Plug-In . SVG Version: 6.00 Build 0)  -->
<svg version="1.1" xmlns="http://www.w3.org/2000/svg" xmlns:xlink="http://www.w3.org/1999/xlink" x="0px" y="0px"
	 viewBox="0 0 800 220" style="enable-background:new 0 0 800 220;" xml:space="preserve">
<style type="text/css">
	.st0{enable-background:new    ;}
	.st1{fill:#FFFFFF;}
	.st2{fill:#080808;}
	.st3{opacity:0.44;fill:#FFE73B;enable-background:new    ;}
	.st4{display:none;opacity:0.18;}
	.st5{display:inline;}
	.st6{clip-path:url(#SVGID_00000034800001827201169520000014757380155005118856_);}
	.st7{clip-path:url(#SVGID_00000176005399167720252720000010140469756285913479_);}
	.st8{clip-path:url(#SVGID_00000110432929037002718650000007433608669894502803_);}
	.st9{clip-path:url(#SVGID_00000148628662502672700950000003843356261337806994_);}
	.st10{opacity:0.44;fill:#FF39AF;enable-background:new    ;}
	.st11{clip-path:url(#SVGID_00000053519389024719343600000002573584552605096852_);}
</style>
<g id="レイヤー_1">
</g>
<g id="レイヤー_2" class="st4">
</g>
<g id="レイヤー_3">
	<g id="グループ_1918" transform="translate(-32.659 -8524.229)">
		<g id="グループ_3859_00000046317343628970694460000017732938222564056707_" transform="translate(32.659 8524.229)">
			<g>
				<g id="グループ_3859-2_00000046328985410395013210000016241376190517088923_">
					<path id="パス_4973_00000168808597734675080940000016835449198814222994_" class="st2" d="M283.7858276,172.3902588
						c4.3516235,0.5838928,8.7384033,0.8665619,13.1289978,0.845993c6.6329956,0,13.1740112-0.5410004,19.6499939-1.0809937
						l0.6350098-0.0529938c-9.8619995-0.0410004-21.2070007-0.1450043-32.2000122-0.3000031L283.7858276,172.3902588z"/>
					<path id="パス_4974_00000152980919476779717820000001009563323829950636_" class="st2" d="M290.3798218,169.1822662
						c-6.5630188,0.3159943-13.0440063,0.9519958-19.5630188,1.6000061
						c-1.6999817,0.1690063-3.3999939,0.4129944-5.1000061,0.6860046
						c6.0160217,0.1269989,12.5840149,0.2400055,19.2789917,0.3309937L290.3798218,169.1822662z"/>
					<path id="パス_4976_00000129196496778047048900000004944417088701728138_" class="st2" d="M536.7758179,146.0952606
						c-3.8389893,0.2630005-7.6790161,0.5279999-11.1050415-1l-0.2149658-0.1410065
						c0.4678955-0.120575,0.9283447-0.2684937,1.3789673-0.4429932c2.9000244-4.0680084-1.4249878-6.0940094-6.2520142-7.977005
						c-0.6099854-0.3532562-1.1626587-0.797348-1.6389771-1.3170013c-0.8051147-0.3979797-1.6846924-0.622818-2.5820312-0.6600037
						c-2.1690063-0.3000031-2.8150024-1.572998-4.381012-2.2649994c-2.2999878-0.946991-4.2850037-2.0079956-4.0360107-3.871994
						c0.3999939-2.9869995,7.0000305-7.2190018,11.3349915-10.5189972c0.2070312,0,0.4140015,0,0.625,0
						c0.8250122-0.1949997,1.6680298-0.3769989,2.4719849-0.5899963c6.026001-1.6210022,6.4780273-3.1470032,1.8340454-5.6660004
						c-0.4940186-0.2666702-0.9837036-0.5376663-1.4689941-0.8130035c2.3839722-1.4909973,5.4379883-3.3000031,2.9729614-3.7570038
						c-2.7686157-0.5394516-5.5633545-0.9349823-8.3729858-1.1849976c3.552002-0.7259979,4.4540405-3.1269989,6.4720459-4.8219986
						l1.1829834,0.0839996l1.1830444-0.1289978c4.276001,0.3509979,7.9459839-0.8059998,11.907959-1.2360001
						c-2.6789551-1.8380051-6.3460083-1.1470032-9.6619873-1.3470001c-0.7730713-0.0973206-1.5547485-0.1067123-2.3299561-0.0279999
						c-0.5185547-0.1207047-1.0443115-0.2078857-1.5740356-0.2610016c-0.0482178-0.0970688-0.1254883-0.1767426-0.2210083-0.2280045
						l-0.6569824,0.0240021c-1.6920166-1.3639984-4.2330322-1.814003-6.8439941-2.189003l1.7290039-0.7599945
						c0.2427979-2.1511078,1.5274048-4.0454559,3.4359741-5.0670013c-2.1067505-0.1179276-4.1900635-0.5026627-6.2000122-1.1450043
						c2.3820801-0.5147095,4.8084106-0.7973633,7.2449951-0.8440018c-1.3762817-1.0064011-2.4788208-2.341301-3.2069702-3.8829956
						c1.1495361-0.1080704,2.2584839-0.4807968,3.2399902-1.0890045c0.5820312,0.0050125,1.1633911-0.0391388,1.7379761-0.1319962
						c0.5856934,0.0875397,1.178894,0.1143494,1.7700806,0.0800018c2.526001,0,5.2769775,0.6319962,7.3949585-0.5240021
						c-2.9890137-0.461998-5.7210083-1.4129944-8.980957-1.3499985l-0.8920288-0.1389999l-0.8999634,0.0080032
						c-1.882019-1.6210022-2.2780151-3.9830017-7.6229858-3.8680038c-0.9738159-0.9191589-2.0553589-1.7169647-3.2210083-2.3759995
						c0.9719849-0.9659958,2.2000122-1.9860001,0.440979-3.1949997c-1.6889954-1.1559982-4.2690125-3.5999985-0.9639893-5.5569992
						c0.5352783-1.2444992,1.6151123-2.1722412,2.9260254-2.5139961c0.1449585-0.4099998,0.256958-0.8230019,0.4140015-1.2439995
						c0.7974854,0.3504944,1.6889648,0.4257774,2.5339966,0.2140007c3.3859863-1.875,6.6799927-3.7999992,10.177002-5.6119995
						c6.3169556-3.2670021,5.8549805-5.5079994-1.9140015-8.3290024c-1.0360107-0.3759995-2.1270142-0.6999969-3.1950073-1.0509987
						c-4.1570435-0.0999985-7.5870361-1.9679985-11.8800354-1.730999
						c-7.2359924-2.3540001-13.9830017-2.1790009-18.5069885,1.6940002c-1.9089966,1.6329994-4,1.4370003-6.3940125,1.5309982
						c-0.4729919-0.9370003-1.5799866-1.6800003-3.4450073-2.1899986c-0.6889954-2.3120003-3.7470093-3.7340012-7.4419861-4.9120026
						l-1.8519897-1c-13.0850525-4.3810043-27.0690308-4.4660034-41.3770447-3.0060043l-28.3210144,4.0229988
						c-3.9660034-0.2819977-7.5669861,0.6300011-11.4349976,0.6710014
						c-7.6439819,0.5859985-15.243988,1.3569984-22.9440002,1.7130013
						c-7.6300049,0.3569984-15.1390076,1.0559998-22.7210083,1.5669975l0.0509949-0.0200005
						c-11.2900085-2.2869987-22.4349976-2.0999985-33.3999939-1.9599991
						c9.0230103,0.6389999,19.2940063,1.4169998,29.3999939,2.2260017
						c-4.9150085,0.2759972-9.8739929,0.4370003-14.9349976,0.3249969
						c-21.8289795-0.4869995-43.6910095-0.973999-65.493988-0.5620003l-11.1009674-0.4899979
						c-1.7353668-0.7749901-3.667572-0.9956932-5.5330048-0.632c-2.4579926-0.1160011-6.447998-1.7469978-5.6349945,1.3689995
						l-2.1119995,0.1130028c-2.4423981-0.2577095-4.9056244-0.2483215-7.345993,0.0279999
						c-11.256012,0.8799973-42.4880219-3.571003-53.9740143-4.2200012
						c-4.5680084-0.3050003-9.1340027-0.5890007-13.4049988,0.480999c0.0739899,1.7509995-1,2.9249992-5.0820007,2.7249985
						c-2.0839996-0.0999985-4.178009-0.086998-6.2689972-0.1259995c0.0189972,0.6539993,0.0410004,1.3079987,0.0599976,1.9630013
						c-2.753006-0.1000023-5.6600037-0.5900002-7.7350006,0.7299995c-1.07901,0.5999985-4.1500092,0.118-3.6750031,1.5579987
						c-0.8222046,0.1342545-1.6209717,0.3854675-2.3720093,0.7460022l-4.8929901-0.177002
						c-3.4300079-0.5200005-9.0540085-1.4709969-14.9220047-2.4230003
						c-10.9179993-1.7769966-22.6489944-3.5449982-22.5069962-2.5269966
						c0.2200012,1.5480003,4.0299988,0.8999977,6.2319946,1.2479973c0.1190033,0.0650024,0.2450027,0.1070023,0.3670044,0.1650009
						c-0.715004,0.0849991-1.2850037,0.3349991-1.0579987,0.8300018c1.7579956,3.8260002-3.5910034,2.6529999-6.5839996,2.7999992
						c-4.576004,0.2200012-7.7910004,1.0680008-8.3150024,3.8320007c5.689003,0.7669983,12.0540009-0.6450005,17.1730042,1.9720001
						c0.0670013,0.0529976,0.1380005,0.0999985,0.2050018,0.1529999c-0.4727097,0.0834236-0.9401703,0.1942787-1.4000015,0.3320007
						c-1.6580048,1.9510002-1.2799988,3.4909973,0.1230011,4.8260002c-0.9930038-0.2649994-2.0550003-0.6459999-2.9609985-0.8460007
						c-3.2200012-0.7099991-4.723999-3.0530014-9.7000046-2.5289993c6.3000031,0.5999985,0.1200027,4.3059998,6.038002,5
						c-1.6484756,0.3035698-3.3306808,0.3806152-5,0.2290001c-2.2639999-0.1000023-4.5-0.2000008-6.2730026,0.7599983
						c-0.6086655,0-1.2179947-0.0046654-1.8279953-0.0139999c-1.2566681-0.0340004-2.5126648-0.0673332-3.7679977-0.0999985
						c-2.2120056,1.2080002,15.8619995,5.288002,12.6349945,5.1080017c-4.5785828-0.1867371-9.16362,0.1440201-13.6679993,0.9859924
						c-3.3450012,0.5610046,6.7399979,3.9309998,3.3219986,3.8820038
						c-5.6839981,0.6689987,9.723999,6.7179947,10.2900009,10.2419968c0.2000046,1.237999-1.2999954,1.9540024-3.0519943,2.5999985
						c-1.1870041,0.4660034-1.6720047,1.3170013-3.3220062,1.526001c-0.6754074,0.0260773-1.3399124,0.1787186-1.9589996,0.4500046
						c-0.3684692,0.3530045-0.7861404,0.6507645-1.2399979,0.8839951c-3.6640015,1.2750015-6.9420013,2.6360016-4.7159958,5.3359985
						c0.3451385,0.1134796,0.6959457,0.2089386,1.0509949,0.2860031c-0.0530014,0.0369949-0.1100006,0.0699997-0.1629944,0.0999985
						c-2.6000061,1.0329971-5.5210037,0.8709946-8.4420013,0.711998c-1.5593948-0.1195908-3.1245956-0.1446304-4.6870117-0.0749969
						c0.276001,1.9280014,2.6780014,2.6480026,6.1389999,2.9910049c2.2670059,0.2269974,6.3790054-0.3580017,4.8710022,2.2080002
						c-0.3430023,0.5810013,1.2000046,0.75,1.9630051,0.6500015c6.1809998-0.8000031,12.8389969-0.0449982,18.9839935-0.9329987
						c0.6199112,0.005249,1.2358246-0.0997238,1.8190002-0.3100052l3.2320023,0.0999985
						c-0.4110031,0.3160019-0.5,0.5999985-0.1409988,0.852005l4.6829987,0.1470032l4.1699982,0.9089966
						c2.4100037,0.9290009,5.336998,0.7720032,8.2000046,0.8519974c1.1264725,0.3862762,2.2777634,0.6959763,3.4459991,0.927002
						c-5.1180038,1.1999969,0.8740005,6.1829987-6.7910004,6.5139999c5.4509964,0.9720001,7.862999-1.1719971,11.0379944-2.3399963
						c2.5420074,0.2490005,4.2430115,1.1119995,3.1710052,4c-6.7939987,2.3679962-12.8000031,5.1879959-16.4950027,9.3679962
						c-7.0339966-0.125-7.5309982,3.4250031-9.9840012,5.875h-1.185997l-1.1710052,0.2170029
						c-4.2889938-0.0660019-7.875,1.385994-11.7999954,2.1079941c2.7949982,1.7250061,6.4069977,0.7460022,9.7309952,0.7250061
						c0.7779083,0.0458984,1.5585098,0.0009155,2.326004-0.1340027c0.7553253,0.1346283,1.5218658,0.1962433,2.2890015,0.1839905
						c3.6800003,2.9190063,11.0769958,1.0640106,15.0699997,3.5780029
						c-0.9889984,0.4340057-2.8590012,0.9140015-2.8339996,1.3000031c0.2579956,4.0250092-4.977005,4.8580017-10.7470016,5.572998
						c2.6093979,1.6883698,4.2941437,4.4859467,4.5660019,7.5820007l5.0820007,2.5100098
						c0.3870468,0.0327911,0.7706985,0.0976715,1.1470032,0.1940002c4.6069946,1.6529999-3.0180054,3.8820038,0.526001,6.0679932
						c1.7589951,1.0839996,4.5,3.4390106,1.3289948,5.6910095c-0.4371643,1.3087769-1.4514618,2.3440857-2.7509995,2.8079987
						c-0.1169968,0.4360046-0.1999969,0.8699951-0.3300018,1.3179932c-0.8164673-0.3075714-1.7141495-0.3234711-2.5410004-0.0449982
						c-3.2519989,2.177002-6.4109955,4.3999939-9.7799988,6.522995c-6.0859985,3.8280029-5.4749985,6.1159973,2.465004,8.5
						c1.0589981,0.3159943,2.1689987,0.5789948,3.2579956,0.8659973c1.826355-0.0249023,3.6498413,0.1528473,5.4370041,0.5299988
						c2.142128,0.4815063,4.3458252,0.6289062,6.5329971,0.4369965c2.4057693,0.648941,4.8843536,0.9889984,7.3759995,1.0120087
						c4.359993,0,8.1789932-1.2590027,10.9520035-4.0780029c1.9669952-2,4.3000031-1.7350006,6.9660034-2.1130066
						c8.4149933-1.1920013,16.8390045-1.1640015,25.2619934-1.1360016
						c3.6999969,0.0119934,7.4000092,0.0240021,11.1000061-0.0659943c6.4700012,2.348999,13.7420044,0.8650055,20.4660034,0.427002
						c8.8079987-0.572998,17.9779968-0.9199982,25.8639984-4.2899933
						c3.8529968-1.6459961,10.0679932-2.2350006,13.0350037-1.4129944
						c8.7389984,2.427002,16.8430023,0.4940033,24.8999786-0.8000031c-19.8209839-0.4199982-33.7059784-1-26.7689819-1.6069946
						l14.8560028-0.5650024c-0.0046844-0.4706573-0.0189972-0.9420013-0.0429993-1.4140015
						c4.3869781-1.6419983,9.2519989-1.7169952,14.1369781-1.8800049
						c12.1530151-0.3999939,24.3059998-0.8059998,36.4530029-1.3529968
						c4.776001-0.2140045,9.8049927,0.0139923,14.0820007-1.8860016l46.5-1.7429962
						c1.6499939,2.9100037,5.2049866,2.6299896,8.7619934,2.3509979c1.2956848-0.1299286,2.5982666-0.1780243,3.8999939-0.1439972
						c0.8213196,0.03302,1.6439209,0.0149841,2.4630127-0.0540009c17.8739929-1.0839996,35.8210144-0.5740051,53.7099915-3.0189972
						c3.8425598-0.3680878,7.7128906-0.3369141,11.5490112,0.0930023c3.4007263,0.3359833,6.8212891,0.4258881,10.2349854,0.2689972
						c6.5700073-0.4570007,13-0.9060059,18.3399963-3.6060028l-6.6159973,0.2220001l-0.2000122-2.7799988l5.3309937-0.5
						l13.230011,0.5939941c2.0531921,0.4417419,4.1975403,0.0879364,6-0.9899902l7.0369873-0.2279968
						c0.7335815,0.2820587,1.5140991,0.4222107,2.2999878,0.4129944c8.0880127,1.2799988,16.8389893,0.0839996,24.9769897,1.2320099
						c1.0090332,0.1419983,3.0280151-0.1240082,2.5740356-0.9900055c-2.0100098-3.8450012,3.3999634-3,6.3839722-3.3609924
						c4.5510254-0.5500031,7.7000122-1.651001,8.0469971-4.5500031c-2.055542-0.092865-4.1151123-0.0440826-6.1640015,0.1459961
						 M108.1508102,47.0182571c-0.5490036-0.0659981-1.0999985-0.1299973-1.6450043-0.2099991
						C108.3478088,46.5312576,108.4908066,46.7082596,108.1508102,47.0182571"/>
					<path id="パス_4977_00000022537976603242175160000007690813171819199117_" class="st2" d="M343.7488098,171.3922577
						c-8.769989-0.7510071-17.5920105-0.0390015-26.5369873,0.7070007c2.6919861,0.0110016,5.276001,0.0160065,7.7099915,0.0169983
						c15.3710022,0,24.7999878-0.2129974,18.8259888-0.723999"/>
					<path id="パス_4978_00000110459030481840220310000011075255170001373325_" class="st2" d="M286.5918274,42.6622581
						c8.690979,1.3069992,17.5309753,1.2159996,26.4999695,1.0999985c-19.6390076-1.3929977-33.3569946-2.1299973-26.5-1.0999985"/>
				</g>
			</g>
		</g>
		<g id="グループ_286" transform="translate(0 -320)">
			<g class="st0">
				<path class="st1" d="M197.1199341,8926.0351562h-12.8710938v-11.1923828h38.0537109v11.1923828h-12.8710938v67.1542969
					h-12.3115234V8926.0351562z"/>
				<path class="st1" d="M224.6541138,8914.8427734h11.8642578l5.484375,60.2148438h0.2236328l5.8203125-60.2148438h13.4306641
					l5.8203125,60.2148438h0.2236328l5.484375-60.2148438h10.6328125l-7.9472656,78.3466797h-15.3330078l-5.5966797-52.828125
					h-0.2236328l-5.5957031,52.828125h-16.3408203L224.6541138,8914.8427734z"/>
				<path class="st1" d="M288.7879028,8914.8427734h12.3115234v78.3466797h-12.3115234V8914.8427734z"/>
				<path class="st1" d="M318.78302,8926.0351562h-12.8710938v-11.1923828h38.0537109v11.1923828h-12.8710938v67.1542969H318.78302
					V8926.0351562z"/>
				<path class="st1" d="M359.524231,8926.0351562h-12.8710938v-11.1923828h38.0537109v11.1923828h-12.8710938v67.1542969
					H359.524231V8926.0351562z"/>
				<path class="st1" d="M389.5203247,8914.8427734h33.5771484v11.1923828h-21.265625v20.7060547h16.9003906v11.1923828h-16.9003906
					v24.0634766h21.265625v11.1923828h-33.5771484V8914.8427734z"/>
				<path class="st1" d="M429.0300903,8914.8427734h18.2441406c12.7587891,0,18.2431641,5.9326172,18.2431641,18.0205078v4.8125
					c0,8.0585938-2.5742188,13.2070312-8.0585938,15.4453125v0.2236328c6.15625,1.9023438,8.1708984,7.7226562,8.1708984,16.5644531
					v13.7666016c0,3.8056641,0.1113281,6.6035156,1.3427734,9.5136719h-12.5351562
					c-0.671875-2.0146484-1.1201172-3.2460938-1.1201172-9.625v-14.3261719c0-7.2753906-2.1259766-9.6259766-7.7226562-9.6259766
					h-4.2529297v33.5771484h-12.3115234V8914.8427734z M445.8191528,8948.4199219
					c4.5888672,0,7.3867188-2.0146484,7.3867188-8.2822266v-6.0439453c0-5.5957031-1.9023438-8.0585938-6.2675781-8.0585938
					h-5.5966797v22.3847656H445.8191528z"/>
			</g>
		</g>
	</g>
</g>
</svg>
