<?xml version="1.0" encoding="utf-8"?>
<!-- Generator: Adobe Illustrator 26.3.1, SVG Export Plug-In . SVG Version: 6.00 Build 0)  -->
<svg version="1.1" xmlns="http://www.w3.org/2000/svg" xmlns:xlink="http://www.w3.org/1999/xlink" x="0px" y="0px"
	 viewBox="0 0 800 220" style="enable-background:new 0 0 800 220;" xml:space="preserve">
<style type="text/css">
	.st0{enable-background:new    ;}
	.st1{fill:#FFFFFF;}
	.st2{fill:#080808;}
	.st3{opacity:0.44;fill:#FFE73B;enable-background:new    ;}
	.st4{display:none;opacity:0.18;}
	.st5{display:inline;}
	.st6{clip-path:url(#SVGID_00000110435055227713183730000006057957985033284536_);}
	.st7{clip-path:url(#SVGID_00000002381713481952387960000008694957420878456511_);}
	.st8{clip-path:url(#SVGID_00000173845553545715912590000003041492011677722543_);}
	.st9{clip-path:url(#SVGID_00000017511859144856570960000018376406151459924620_);}
	.st10{opacity:0.44;fill:#FF39AF;enable-background:new    ;}
	.st11{clip-path:url(#SVGID_00000070797629164808046640000007049278134651244708_);}
</style>
<g id="レイヤー_1">
</g>
<g id="レイヤー_2" class="st4">
</g>
<g id="レイヤー_3">
	<g id="h1_00000034773728883413397720000013806956720629138325_" transform="translate(49 -10345)">
		<g id="グループ_2094" transform="translate(-55 10346)">
			<g>
				<g id="グループ_2093" transform="translate(6 -1)">
					<path id="パス_3934" class="st2" d="M104.1759415,194.1804352c-2.2294769,0.2121429-4.4787369,0.0488586-6.6541977-0.4830017
						c-1.8161163-0.4156647-3.6755142-0.6121368-5.5384064-0.5852051c-1.1087952-0.3177948-2.2399979-0.6047974-3.3180008-0.956192
						c-8.0891953-2.6348114-8.7108002-5.1617889-2.5101929-9.3883972c3.4313965-2.3394012,6.6499939-4.802002,9.9624023-7.2072144
						c0.8388596-0.3071594,1.7623215-0.2891693,2.5885925,0.050415c0.1316071-0.4942017,0.2170029-0.9799957,0.3374023-1.4574127
						c1.3559341-0.5554199,2.3860703-1.6968079,2.8000031-3.1024017c3.2200012-2.4891968,0.4382019-5.0890045-1.3552017-6.2873993
						c-3.6091995-2.4191895,4.1580048-4.8761902-0.5361938-6.7032013c-0.3820267-0.1060944-0.772789-0.1777649-1.1676025-0.2141876
						l-5.1800003-2.773407c-0.23069-3.3438263-1.9345322-6.4124756-4.6508026-8.3762054
						c5.8799973-0.7896118,11.2112045-1.7135925,10.9466019-6.1600037c-0.0252075-0.4199982,1.8801956-0.956192,2.8881989-1.4364014
						c-0.4071808-0.2737579-0.8416367-0.5045929-1.296402-0.688797c-1.1868362,0.0749207-2.3783951,0.0029755-3.5476074-0.2141876
						c0.6940918-0.0193024,1.3846893-0.1055756,2.0622025-0.2575989c-4.1327972-1.0079956-9.5648041-0.2015991-12.5650024-2.7887878
						c-0.7819214,0.0147858-1.5632248-0.0527954-2.3309937-0.2015991c-0.7806473,0.1492462-1.5770416,0.1991119-2.3702011,0.148407
						c-3.3852005,0.0223999-7.0643997,1.1004028-9.9120026-0.8007965c3.9970016-0.7980042,7.6495972-2.4024048,12.017601-2.3296051
						l1.1984024-0.2394257h1.2081985c0.7256165-0.8568115,1.3948212-1.7598419,2.0034027-2.7033997L88.75634,128.916626
						l-4.7712021-0.148407c-2.0286026-1.3789978,9.8097992-4.0501938,15.2445984-5.473999
						c0.3443985-0.3275986,0.7014008-0.6472702,1.0709991-0.9589996c-5.7913666-0.1927795-11.542511-1.0381241-17.1444016-2.5199966
						c-4.423996-1.0849991,9.3603973-5.1800003,4.7893982-5.3815994
						c-6.7199936-1.2796021,9.3506012-7.4340057,13.6738052-12.3563995
						c-2.485466-0.0242691-4.9723358-0.0457382-7.4605942-0.0644073c-1.9252625,0.959137-4.1997452,0.9067535-6.078804-0.1399994
						l-5.4291992-0.1875839c-0.5899277,0.2329483-1.2193832,0.3494263-1.8535995,0.3429947
						c-6.2593994,0.9800034-13.0410004,0.1399994-19.3381996,1.0304031
						c-0.7812004,0.1063995-2.3478012-0.0770035-1.9992027-0.7195969c1.5400009-2.8336029-2.6515999-2.1882019-4.9615974-2.4388046
						c-3.5266037-0.3863983-5.9738045-1.1816025-6.2538033-3.3110046c1.5903854-0.0779419,3.1841583-0.0522156,4.7711983,0.0770035
						c2.9764023,0.1763992,5.9528008,0.3556061,8.5988007-0.7854004c0.0545998-0.0335999,0.1134033-0.0699997,0.1666031-0.1078033
						c-0.3627357-0.084404-0.7203255-0.1895752-1.071003-0.3149948c-2.2665977-2.9777985,1.071003-4.4800034,4.8033981-5.895401
						c0.4667816-0.2616119,0.8915329-0.59198,1.2600021-0.9799957c0.6252975-0.2981644,1.3042908-0.4672012,1.9963989-0.4970016
						c1.6800003-0.2310028,2.1756058-1.1717987,3.3838043-1.6800003c1.784996-0.6999969,3.310997-1.4993973,3.1093979-2.8672028
						c-0.2559891-0.8855057-0.777359-1.6712265-1.4937973-2.2511978c-1.8664093,0.0294647-3.7327652-0.0617294-5.5874023-0.2730026
						c0.2227859-1.1233902,0.962822-2.0756836,1.9963989-2.5690002c-4.2322006-2.9749985-9.0145988-5.7638016-5.3955994-6.2257996
						c3.4804001,0.0531998-6.7914009-3.6694031-3.3838005-4.2882004c4.57938-0.9283676,9.2549171-1.2946091,13.9230003-1.0905991
						c3.2872009,0.2015991-15.1200027-4.3064003-12.8716011-5.6447983l3.8373985,0.1119995
						c0.6244049,0,1.2417984,0.0126038,1.8619995,0.0139999c1.8074036-1.0583992,4.0838013-0.9477997,6.3909988-0.8400002
						c1.7018585,0.1678314,3.4191895,0.0824356,5.0960007-0.2533989c-6.0283966-0.7658005,0.2674026-4.8663979-6.1515961-5.5244026
						c5.072197-0.5795975,6.6052017,2.0089989,9.8853989,2.8000031c1.9838028,0.4759979,4.7025986,1.8941994,5.8646011,0.9071999
						c1.1619949-0.9869995,5.0876007-2.4626007,0.8190002-4.2518005c-1.8746033-0.7840004-0.840004-1.2809982,0.9365997-1.7332001
						c1.4933319-0.481472,2.9425278-1.0903778,4.3315964-1.8199997c1.0342484-1.0865784,2.409111-1.7866096,3.8962021-1.983799
						l-0.048996,1.9235992c0.0769958,0,0.1497955,0.007,0.2253952,0.0084
						c2.0482025-1.1886024,7.5516052-0.7854004,5.7050018-3.7688026l-2.1266022-1.1199989
						c-1.2183304-0.0222168-2.4084778-0.3702698-3.4468002-1.0079994c-1.3413544,0.396244-2.7821884,0.278965-4.0418015-0.3290024
						l-3.8401947-0.1175957c-1.0360031,0.0573997-0.4199982-0.3766022,0.1665955-0.8064003
						c0.7840042-0.5726013,1.5400009-1.1480026-1.6281967-0.5768013c-1.4930038,0.2427635-3.0235519-0.0582809-4.3134003-0.8484001
						c-2.2399979-0.3863983-6.1236038,0.3303986-6.3476028-1.3790016
						c-0.1483994-1.1199989,11.8006058,0.8400002,22.9221954,2.7915993
						c8.892807,1.5652046,17.2592087,3.1332016,18.4898071,3.1248055c1.4446335,0.0812645,2.8837357-0.2369728,4.1594009-0.9197998
						c-0.7517929-1.7906036,2.5592041-1.1942024,3.6959991-1.8760033c2.1139984-1.4587975,5.0749969-0.9183998,7.8791962-0.8064003
						c-0.0195923-0.7242661-0.0401306-1.4471321-0.0615997-2.1685982c2.1294098,0.0433998,4.2630157,0.0307999,6.3868103,0.1399994
						c4.1551971,0.218399,5.2513885-1.0751991,5.1799927-3.0099983c4.3511963-1.1816025,9.0019989-0.868,13.6555939-0.5306015
						c11.70401,0.7182007,43.5189972,5.6336021,54.9807892,4.6619987c2.4849396-0.3042831,4.9970703-0.3146248,7.4844055-0.0307999
						l2.1504059-0.1245995c-0.8274078-3.4412003,3.2354126-1.6408005,5.7400055-1.5119972
						c1.9044037-0.3990326,3.8874512-0.1527519,5.6363983,0.6999969l11.3148041,0.5418015
						c22.2095947-0.454998,44.4808044,0.0825996,66.7170105,0.6216011
						c14.5221863,0.3485985,28.2435913-1.6450005,42.3807983-2.3632011
						c7.8399963-0.3975983,15.5834045-1.2459984,23.3716125-1.8927994c3.9395752-0.0447998,7.607605-1.0527992,11.6479797-0.7406006
						c9.6133118-1.4784012,19.2313232-2.9595985,28.8539734-4.4435997
						c14.5726013-1.6128006,28.8175659-1.5189991,42.1400146,3.3264008c0.6244202,0.3667984,1.2431946,0.7280006,1.8871765,1.108799
						c3.7645874,1.300602,6.8782043,2.8713989,7.5810242,5.4263992c2.3926086,0.7000008,3.5769958,1.8199997,3.7645874,3.262001
						c5.7582092,3.9312019,10.8247986,8.0639992,13.0801697,12.9934006
						c3.8682251,2.3981972,8.1325989,4.6199989,11.0992126,7.4199982c-0.5963745,0.0223999-1.2264099,0.0223999-1.8563843,0.0223999
						c-3.2409973,0-6.4819946,0-5.2653809,3.040802c2.9687195,0.8996582,5.8392334,2.0961685,8.5679932,3.5713959
						c3.3600159,0.3304062,6.3280029,1.6058044,9.8000183,1.6884003c1.0878296,0.3514023,2.197998,0.6804047,3.2536011,1.058403
						c5.4165649,1.9459991,7.3458252,3.6189957,5.9611816,5.5369949c1.3244629,0.2954025,2.6278076,0.6300049,3.9857788,0.8568039
						c-1.7842407,0.7863922-3.7640991,1.0166779-5.6812134,0.6607971c-0.7454224,0.4943848-1.5206299,0.9422989-2.321167,1.3412018
						c-3.3599854,1.7247925-6.5505981,3.5546036-9.8000183,5.3423996c1.8274536,0.5060349,3.6995544,0.8342209,5.5902405,0.9800034
						c-1.993927,1.2007217-3.2944641,3.2815552-3.5000305,5.5999985c-1.3066406,0.6215973-2.6133118,1.2450638-3.9199829,1.8703995
						c-0.3011169,0.0215454-0.599884,0.0683823-0.8931885,0.1399994c-0.1815491,0.0619659-0.3587952,0.1358566-0.5306091,0.221199
						c0.7346191,0.0723343,1.4584656,0.2287521,2.1573792,0.4662018l4.2994385,0.7210007l4.7698059-0.1932068
						c1.757019,1.1732025-5.9388123,4.0712051-11.6577759,6.1837997l4.3931885,2.4416046l0.0153809,0.1399918
						c2.9526062,0.2939987,5.8380127,0.7812042,8.692627,1.3524017c2.5101929,0.5040054-0.6005859,2.5031967-3.0281982,4.1496048
						c0.4937134,0.3023987,0.9925537,0.6019974,1.496582,0.8987961c4.7305908,2.7831955,4.2714233,4.4673996-1.8676147,6.2593994
						c-0.817627,0.2365952-1.6799927,0.4367981-2.5199585,0.6523972c-0.2128296-0.0084-0.4199829-0.0112-0.6356201-0.0069962
						c-0.893219,0.734993-1.8746033,1.5119934-2.8798218,2.3071976c2.0553589,0.1855316,4.0231934,0.9194717,5.697998,2.1251984
						c0.7800903,0.0391006,1.5548096,0.1506424,2.31427,0.3331985c0.7894897-0.0800934,1.5855103-0.0711746,2.3729858,0.0265961
						c0.8834229,0.0531998,1.793396,0.0447922,2.7019653,0.0363998c2.5620117-0.0223999,5.1254272-0.0475998,7.1400146,1.3216019
						c-4.0361938,0.4339905-7.7755737,1.6001968-12.1309814,1.2459946l-1.2053833,0.1302032l-1.2053833-0.0853882
						c-2.6600342,2.2077942-3.3922424,5.6125946-10.5322571,5.0161896
						c-0.7579956,0.7097626-1.5701294,1.3594513-2.4289551,1.9432068c0.8455811,0.6014404,1.7567749,1.1049347,2.7160034,1.5007935
						c1.5960083,0.7630005,2.2539673,2.171402,4.4631653,2.500412c0.9203491,0.0436554,1.8192139,0.2928925,2.6306152,0.7294006
						c0.4780884,0.5687866,1.0414734,1.059967,1.670166,1.4559937c4.9182129,2.0818024,9.3254395,4.3176117,6.3686523,8.8130035
						c-0.4560547,0.1918945-0.923645,0.3550568-1.4000244,0.4886017c0.0714111,0.0518036,0.1470337,0.1007996,0.2183838,0.1567993
						c3.4902344,1.6884003,7.4017944,1.3999939,11.3134155,1.1018066c2.0864868-0.2101746,4.185791-0.2644501,6.2803955-0.1623993
						c-0.3514404,3.2046051-3.5615845,4.4211884-8.1983643,5.0274048c-3.0352173,0.3947906-8.5498047-0.5334015-6.5029907,3.7142029
						c0.4619751,0.9575958-1.5946045,1.2501984-2.6221924,1.093399c-8.2893982-1.2684021-17.2046204,0.0518036-25.443634-1.3608093
						c-0.8045654,0.0090637-1.6025085-0.1462402-2.3449707-0.4563904l-7.1679993,0.2519989
						c-1.8034973,1.1843872-4.013031,1.5794373-6.1152039,1.093399l-7.3711243-0.3612061
						c-3.3103027,0.7783813-6.538147,1.8730774-9.6390076,3.2689972l5.0512085-0.1847992
						c-2.2964478,1.2168732-4.7563477,2.0962524-7.3038025,2.6109924c-1.1751404,1.3052216-2.7680664,2.1605835-4.505188,2.4191895
						c-1.1199951,3.3152008-5.3424072,5.1365967-10.3894043,6.552002c-0.8721619,0.4466095-1.7191772,0.8764038-2.5661926,1.3103943
						c-17.8864136,5.3298035-36.5946045,4.3274078-55.5982056,1.0500031l-37.519989-8.1353912
						c-2.4243774-0.0021667-4.8429565-0.236557-7.2225952-0.6999969l-33.268219,1.3538055
						c-4.3553772,2.0999908-9.4794006,1.8465881-14.3443909,2.0831909
						c-12.3746033,0.6047974-24.7548218,1.0514069-37.133606,1.4952087
						c-4.9769897,0.179184-9.9400177,0.261795-14.4018097,2.0762024c0.0251923,0.5207977,0.0401154,1.0415802,0.0447998,1.5623932
						l-15.1340027,0.6243896c-7.0671844,0.6692047,7.0783997,1.3103943,27.267807,1.7752075
						c-8.2109985,1.4293976-16.4667816,3.5643921-25.3694,0.8876038c-3.0225983-0.9072113-9.3533936-0.2590027-13.2776031,1.5609894
						c-8.0331879,3.7240143-17.3753967,4.1062012-26.3465881,4.7376099
						c-6.8488007,0.4843903-14.2575989,2.1237946-20.8488007-0.4718018
						c-3.7660065,0.1007996-7.5348053,0.0854034-11.3022003,0.0727997
						c-8.5975494-0.2533264-17.2017365,0.1679688-25.7333984,1.2600098
						c-2.7173996,0.4199982-5.0918045,0.124588-7.0966034,2.3351898c-2.8879318,3.050827-6.960022,4.6946869-11.156601,4.5038147
						c-2.5512161-0.0349579-5.0853806-0.422226-7.5306015-1.1508026 M271.2547302,181.4586334l1.2333679-0.6495972
						c-6.8207703-0.1007996-13.5113831-0.2281952-19.6363831-0.3681946
						c1.7317963-0.3023987,3.4622192-0.5711975,5.1940002-0.7588043c6.6416016-0.7153931,13.2426147-1.4181976,19.9290161-1.7626038
						l-5.4824219,2.8896027c11.2000122,0.1722107,22.7598267,0.2870026,32.8062134,0.32901l-0.6468201,0.0601959
						c-6.5968018,0.596405-13.2608032,1.1927948-20.019989,1.1927948
						c-4.4769592,0.0239105-8.9494324-0.2877655-13.3798218-0.9324036 M313.155304,181.1562347
						c-2.4822083,0-5.1170044,0-7.8638-0.0167999c9.1167908-0.8231964,18.107605-1.6128082,27.0437927-0.782608
						c6.0690002,0.5600128-3.4804077,0.799408-19.0862122,0.799408H313.155304z"/>
				</g>
			</g>
		</g>
		<g id="グループ_1918_00000093144922520953458740000016431241724410965408_" transform="translate(-94.48 1792.399)">
			<g id="グループ_286_00000074427625430402157730000012629800888021315723_" transform="translate(0 -320)">
				<g class="st0">
					<path class="st1" d="M209.5534973,8954.3632812H196.673233v-11.2001953h38.0809479v11.2001953h-12.8802643v67.2011719
						h-12.3204193V8954.3632812z"/>
					<path class="st1" d="M237.2171783,8943.1630859h11.8719635l5.4878998,60.2578125h0.2242126l5.824234-60.2578125h13.4401245
						l5.8242188,60.2578125h0.2242126l5.4878845-60.2578125h10.6401367l-7.95224,78.4013672h-15.3439331l-5.6000061-52.8652344
						h-0.2242126l-5.6000061,52.8652344h-16.3522491L237.2171783,8943.1630859z"/>
					<path class="st1" d="M301.5043945,8943.1630859h12.3197021v78.4013672h-12.3197021V8943.1630859z"/>
					<path class="st1" d="M331.6303711,8954.3632812h-12.8802795v-11.2001953h38.0809631v11.2001953h-12.8802795v67.2011719
						h-12.3204041V8954.3632812z"/>
					<path class="st1" d="M372.5099487,8954.3632812h-12.8802795v-11.2001953h38.0809631v11.2001953h-12.8802795v67.2011719
						h-12.3204041V8954.3632812z"/>
					<path class="st1" d="M402.63797,8943.1630859h33.6006775v11.2001953h-21.2809448v20.7197266h16.9127808v11.2011719h-16.9127808
						v24.0800781h21.2809448v11.2001953H402.63797V8943.1630859z"/>
					<path class="st1" d="M442.2850342,8943.1630859h18.256073c12.768158,0,18.2567444,5.9365234,18.2567444,18.0322266v4.8164062
						c0,8.0634766-2.5764771,13.2167969-8.0643616,15.4560547v0.2246094
						c6.1598511,1.9023438,8.1764526,7.7265625,8.1764526,16.5751953v13.7773438
						c0,3.8076172,0.1114197,6.6074219,1.3439636,9.5195312H467.709259
						c-0.6719666-2.0166016-1.1197205-3.2480469-1.1197205-9.6318359v-14.3359375
						c0-7.2802734-2.1280212-9.6337891-7.7286987-9.6337891h-4.256073v33.6015625h-12.3197327V8943.1630859z
						 M459.0850525,8976.7636719c4.5923767,0,7.3923645-2.015625,7.3923645-8.2880859v-6.0488281
						c0-5.5996094-1.9038086-8.0634766-6.2719727-8.0634766h-5.6006775v22.4003906H459.0850525z"/>
				</g>
			</g>
		</g>
	</g>
</g>
</svg>
