<svg xmlns="http://www.w3.org/2000/svg" width="30" height="24.371" viewBox="0 0 30 24.371"><path d="M26.929,7.679c.018.265.018.53.018.8A17.537,17.537,0,0,1,23.61,18.836a16.955,16.955,0,0,1-2.044,2.371A17.221,17.221,0,0,1,9.66,25.987H9.434A17.424,17.424,0,0,1,0,23.227a12.344,12.344,0,0,0,9.109-2.551A6.161,6.161,0,0,1,3.359,16.4a6.169,6.169,0,0,0,2.779-.1A6.157,6.157,0,0,1,1.2,10.263v-.079a6.1,6.1,0,0,0,2.793.772,6.161,6.161,0,0,1-1.9-8.218A17.478,17.478,0,0,0,14.773,9.17,6.161,6.161,0,0,1,25.262,3.556a12.4,12.4,0,0,0,3.909-1.494,6.18,6.18,0,0,1-2.706,3.4A12.373,12.373,0,0,0,30,4.5a12.529,12.529,0,0,1-3.071,3.18" transform="translate(0 -1.616)"/></svg>