<svg xmlns="http://www.w3.org/2000/svg" width="25" height="20.314" viewBox="0 0 25 20.314"><path d="M42.663,381.8c.015.22.015.441.015.663a14.5,14.5,0,0,1-14.594,14.594v0a14.528,14.528,0,0,1-7.862-2.3,10.6,10.6,0,0,0,1.221.074,10.3,10.3,0,0,0,6.37-2.2,5.135,5.135,0,0,1-4.792-3.562,5.121,5.121,0,0,0,2.316-.088,5.131,5.131,0,0,1-4.115-5.028v-.065a5.1,5.1,0,0,0,2.328.642,5.133,5.133,0,0,1-1.588-6.847,14.563,14.563,0,0,0,10.571,5.359,5.134,5.134,0,0,1,8.741-4.678,10.31,10.31,0,0,0,3.257-1.245,5.146,5.146,0,0,1-2.255,2.837,10.223,10.223,0,0,0,2.946-.807A10.435,10.435,0,0,1,42.663,381.8Z" transform="translate(-20.222 -376.747)" fill="#fff"/></svg>